{
    "asset" : {
        "generator" : "Khronos glTF Blender I/O v1.5.17",
        "version" : "2.0"
    },
    "extensionsUsed" : [
        "KHR_materials_transmission"
    ],
    "scene" : 0,
    "scenes" : [
        {
            "extras" : {
                "glTF2ExportSettings" : {
                    "export_animations" : 1,
                    "export_cameras" : 0,
                    "export_colors" : 1,
                    "export_extras" : 1,
                    "export_force_sampling" : 0,
                    "export_format" : "GLTF_EMBEDDED",
                    "export_image_format" : "AUTO",
                    "export_lights" : 0,
                    "export_morph" : 1,
                    "export_normals" : 1,
                    "export_skins" : 1,
                    "export_texcoords" : 1,
                    "export_yup" : 1,
                    "use_selection" : 1
                }
            },
            "name" : "Scene",
            "nodes" : [
                0
            ]
        }
    ],
    "nodes" : [
        {
            "extras" : {
                "sparkar_optimization" : {
                    "InvertedReducePercentage" : 0
                },
                "spark_blender_addon" : 1
            },
            "mesh" : 0,
            "name" : "model.001",
            "translation" : [
                -0.1700320839881897,
                4.410743713378906e-06,
                0.2763841152191162
            ]
        }
    ],
    "materials" : [
        {
            "doubleSided" : true,
            "extensions" : {
                "KHR_materials_transmission" : {
                    "transmissionFactor" : 0.3850267231464386
                }
            },
            "name" : "material0000.001",
            "pbrMetallicRoughness" : {
                "baseColorFactor" : [
                    0.9683270454406738,
                    1,
                    0.9664229154586792,
                    1
                ],
                "metallicFactor" : 0.310018926858902,
                "roughnessFactor" : 0.47999998927116394
            }
        },
        {
            "doubleSided" : true,
            "name" : "material0001.001",
            "pbrMetallicRoughness" : {
                "baseColorFactor" : [
                    1,
                    0.905626654624939,
                    0.9658083319664001,
                    1
                ],
                "metallicFactor" : 0.3024574816226959,
                "roughnessFactor" : 0.9666666388511658
            }
        }
    ],
    "meshes" : [
        {
            "name" : "model.001",
            "primitives" : [
                {
                    "attributes" : {
                        "POSITION" : 0,
                        "NORMAL" : 1,
                        "TEXCOORD_0" : 2
                    },
                    "indices" : 3,
                    "material" : 0
                },
                {
                    "attributes" : {
                        "POSITION" : 4,
                        "NORMAL" : 5,
                        "TEXCOORD_0" : 6
                    },
                    "indices" : 7,
                    "material" : 1
                }
            ]
        }
    ],
    "accessors" : [
        {
            "bufferView" : 0,
            "componentType" : 5126,
            "count" : 17143,
            "max" : [
                1.0374581813812256,
                2.38100266456604,
                1.0325915813446045
            ],
            "min" : [
                -1.0682735443115234,
                0.002223968505859375,
                -1.037144422531128
            ],
            "type" : "VEC3"
        },
        {
            "bufferView" : 1,
            "componentType" : 5126,
            "count" : 17143,
            "type" : "VEC3"
        },
        {
            "bufferView" : 2,
            "componentType" : 5126,
            "count" : 17143,
            "type" : "VEC2"
        },
        {
            "bufferView" : 3,
            "componentType" : 5123,
            "count" : 72144,
            "type" : "SCALAR"
        },
        {
            "bufferView" : 4,
            "componentType" : 5126,
            "count" : 4191,
            "max" : [
                0.9740213751792908,
                2.38100266456604,
                1.0109272003173828
            ],
            "min" : [
                -1.0057377815246582,
                0.04154467582702637,
                -1.0344994068145752
            ],
            "type" : "VEC3"
        },
        {
            "bufferView" : 5,
            "componentType" : 5126,
            "count" : 4191,
            "type" : "VEC3"
        },
        {
            "bufferView" : 6,
            "componentType" : 5126,
            "count" : 4191,
            "type" : "VEC2"
        },
        {
            "bufferView" : 7,
            "componentType" : 5123,
            "count" : 9255,
            "type" : "SCALAR"
        }
    ],
    "bufferViews" : [
        {
            "buffer" : 0,
            "byteLength" : 205716,
            "byteOffset" : 0
        },
        {
            "buffer" : 0,
            "byteLength" : 205716,
            "byteOffset" : 205716
        },
        {
            "buffer" : 0,
            "byteLength" : 137144,
            "byteOffset" : 411432
        },
        {
            "buffer" : 0,
            "byteLength" : 144288,
            "byteOffset" : 548576
        },
        {
            "buffer" : 0,
            "byteLength" : 50292,
            "byteOffset" : 692864
        },
        {
            "buffer" : 0,
            "byteLength" : 50292,
            "byteOffset" : 743156
        },
        {
            "buffer" : 0,
            "byteLength" : 33528,
            "byteOffset" : 793448
        },
        {
            "buffer" : 0,
            "byteLength" : 18510,
            "byteOffset" : 826976
        }
    ],
    "buffers" : [
        {
            "byteLength" : 845488,
            "uri" : "data:application/octet-stream;base64,"
        }
    ]
}
